<?xml version="1.0" encoding="UTF-8"?>
<svg id="Layer_1" data-name="Layer 1" xmlns="http://www.w3.org/2000/svg" viewBox="0 0 737.3 117.3">
  <defs>
    <style>
      .cls-1 {
        fill: #ddc6d3;
      }

      .cls-1, .cls-2 {
        stroke-width: 0px;
      }

      .cls-2 {
        fill: #f5f6f7;
      }
    </style>
  </defs>
  <path class="cls-1" d="M548.23,94.95V22.35c0-12.2,10.66-22.35,22.97-22.35h.51v10.66c-6.66,0-11.59,4.92-11.59,11.59v72.8c0,6.66,4.92,11.59,11.59,11.59v10.66h-.51c-12.3,0-22.97-9.23-22.97-22.35Z"/>
  <path class="cls-1" d="M713.82,106.64c6.67,0,11.59-4.92,11.59-11.59V22.25c0-6.66-4.92-11.59-11.59-11.59V0h.51c12.3,0,22.97,8.51,22.97,22.35v72.6c0,13.12-10.66,22.35-22.97,22.35h-.51v-10.66Z"/>
  <path class="cls-2" d="M0,18.07h43.89c12.92,0,21.53,9.64,21.53,21.33,0,9.02-5.33,17.02-13.74,20.1l13.74,33.22h-12.51l-13.33-31.99H12.1v31.99H0V18.07ZM42.66,50.06c6.36,0,10.66-4.31,10.66-10.66s-4.31-10.66-10.66-10.66H12.1v21.33h30.56Z"/>
  <path class="cls-2" d="M114.83,18.07h10.66l31.99,74.65h-11.89l-4.51-10.66h-41.84l-4.31,10.66h-12.1l31.99-74.65ZM136.57,71.39l-16.41-39.37-16.41,39.37h32.81Z"/>
  <path class="cls-2" d="M177.58,18.07h8.2l29.74,29.74,29.94-29.74h8v74.65h-11.89v-54.96l-26.04,25.02-26.04-25.02v54.96h-11.89V18.07Z"/>
  <path class="cls-2" d="M279.29,18.07h65.62v10.66h-53.52v21.33h52.7v10.66h-52.7v21.33h53.52v10.66h-65.62V18.07Z"/>
  <path class="cls-2" d="M369.52,18.07h32.81c21.74,0,37.94,15.38,37.94,37.32,0,20.71-17.23,37.32-37.94,37.32h-32.81V18.07ZM402.33,82.06c14.76,0,25.84-11.69,25.84-26.66s-11.07-26.66-25.84-26.66h-20.71v53.32h20.71Z"/>
  <path class="cls-2" d="M481.48,57.45l-31.99-39.37h14.56l23.58,29.74,23.38-29.74h14.56l-31.99,39.37v35.27h-12.1v-35.27Z"/>
  <g>
    <path class="cls-1" d="M577.04,94.22c0-.16.02-.49.06-1.01.04-.51.06-.85.06-1.01.79-.95,1.5-1.66,2.14-2.13.63-.47,1.31-.85,2.02-1.12.71-.28,1.46-.53,2.26-.77.79-.24,1.74-.59,2.85-1.07.55-.24,1.05-.67,1.48-1.3.43-.63.79-1.3,1.07-2.01.28-.71.51-1.44.71-2.19.2-.75.38-1.4.54-1.96.24-.79.61-2.17,1.13-4.14.51-1.98,1.07-4.07,1.66-6.28.59-2.21,1.15-4.3,1.66-6.28.51-1.97.89-3.36,1.13-4.15.71-1.74,1.19-3.43,1.43-5.09.24-1.66.67-3.36,1.31-5.09,1.27-3.79,2.55-7.58,3.86-11.37,1.31-3.79,2.51-7.58,3.62-11.37.24-.79.49-1.78.77-2.96.28-1.18.65-2.31,1.13-3.38.47-1.07,1.11-1.98,1.9-2.73.79-.75,1.82-1.13,3.09-1.13,1.43,0,2.57.48,3.45,1.42.87.95,1.56,2.07,2.08,3.38.51,1.3.91,2.65,1.19,4.03.28,1.38.53,2.47.77,3.26.79,2.69,1.42,5.43,1.9,8.23s1.38,5.47,2.73,7.99l11.17,42.18c.24.79.69,1.42,1.37,1.9.67.48,1.44.85,2.32,1.13.87.28,1.72.49,2.55.65.83.16,1.56.32,2.2.47,1.5.95,2.26,2.41,2.26,4.38s-.59,3.34-1.78,4.33c-1.19.99-2.69,1.48-4.51,1.48-1.98,0-4.04-.06-6.18-.18-2.14-.12-4.16-.22-6.06-.3-1.27,0-2.46-.04-3.56-.12-1.11-.08-2.1-.3-2.97-.65-.87-.36-1.56-.93-2.08-1.72-.52-.79-.77-1.9-.77-3.32v-2.01c.55-.71,1.21-1.24,1.96-1.6.75-.36,1.5-.69,2.26-1.01.75-.32,1.42-.65,2.02-1.01.59-.36,1.01-.85,1.25-1.48,0-.16-.04-.49-.12-1.01-.08-.51-.18-1.05-.3-1.6-.12-.55-.22-1.07-.3-1.54-.08-.47-.16-.79-.24-.95-.08-.24-.2-.67-.36-1.3-.16-.63-.4-1.3-.71-2.01-.32-.71-.65-1.34-1.01-1.9-.36-.55-.73-.83-1.13-.83h-18.65c-.16,0-.55.26-1.19.77-.63.51-.99.85-1.07,1.01l-3.33,6.99c0,.08-.02.32-.06.71-.04.4-.06.67-.06.83,0,1.34.38,2.25,1.13,2.73.75.47,1.56.91,2.44,1.3.87.4,1.68.93,2.44,1.6.75.67,1.13,1.84,1.13,3.49,0,1.82-.61,3.12-1.84,3.91-1.23.79-2.71,1.18-4.46,1.18-1.11,0-2.2-.08-3.27-.24-1.07-.16-2.2-.24-3.39-.24-1.58,0-3.13.14-4.63.42-1.51.28-3.05.41-4.63.41-1.82,0-3.25-.69-4.28-2.07-1.03-1.38-1.54-2.9-1.54-4.56ZM604.6,65.45c.87.56,1.7.85,2.5.89.79.04,1.74.06,2.85.06,1.58,0,3.15-.12,4.69-.36,1.54-.24,3.15-.43,4.81-.59l.48-.47c0-.08.02-.3.06-.65.04-.36.06-.61.06-.77,0-.63-.16-1.72-.48-3.27-.32-1.54-.73-3.25-1.25-5.11-.52-1.86-1.09-3.78-1.72-5.76-.64-1.98-1.23-3.78-1.78-5.41-.56-1.62-1.03-2.97-1.43-4.04-.4-1.07-.63-1.6-.71-1.6-.32,0-.55.2-.71.59-.16.4-.28.67-.36.83-.24.64-.58,1.57-1.01,2.79-.44,1.23-.89,2.46-1.37,3.68-.48,1.23-.89,2.34-1.25,3.33-.36.99-.58,1.6-.65,1.84-.63,2.06-1.27,4.16-1.9,6.3-.63,2.14-.95,4.24-.95,6.3,0,.16.02.4.06.71.04.32.06.56.06.71Z"/>
    <path class="cls-1" d="M659.25,89.81c1.66-1.11,3.52-1.66,5.58-1.66,1.11,0,2.2.1,3.27.3,1.07.2,2.16.3,3.27.3.08,0,.43-.02,1.07-.06.63-.04,1.27-.12,1.9-.24.63-.12,1.23-.28,1.78-.48.55-.2.83-.42.83-.65v-52.51c.4-.79.63-1.49.71-2.08.08-.59.12-1.29.12-2.08,0-.16-.02-.42-.06-.77-.04-.36-.06-.57-.06-.65l-.47-.71h-12.59c-.87,0-1.74-.22-2.61-.65-.87-.43-1.66-1.01-2.38-1.72s-1.31-1.5-1.78-2.38c-.47-.87-.71-1.74-.71-2.61,0-.95.24-1.82.71-2.61.48-.79,1.09-1.46,1.84-2.02.75-.55,1.6-.97,2.55-1.25.95-.28,1.86-.42,2.73-.42.63,0,1.17.02,1.6.06.43.04,1.05.26,1.84.65h19.01c1.27.71,3.01,1.03,5.23.95,2.22-.08,4.4-.04,6.53.12,2.14.16,3.98.63,5.52,1.43,1.54.79,2.32,2.42,2.32,4.87,0,2.3-.69,3.78-2.08,4.46-1.39.67-3.11,1.01-5.17,1.01-1.5,0-2.93-.1-4.28-.3-1.35-.2-2.77-.3-4.28-.3h-2.38l-.48.48v19.96c.24.87.38,1.57.42,2.08.04.52.06,1.17.06,1.96,0,.71-.02,1.35-.06,1.9-.04.55-.18,1.23-.42,2.02v31.13l1.43,1.54h11.52c.71,0,1.46.16,2.26.47.79.32,1.5.73,2.14,1.25.63.52,1.17,1.13,1.6,1.84.43.71.65,1.43.65,2.14,0,2.3-.89,4.06-2.67,5.29-1.78,1.23-3.7,1.84-5.76,1.84h-16.28c-1.03-.4-2.28-.58-3.74-.54-1.47.04-2.63.06-3.5.06-1.82,0-3.53.08-5.11.24-1.59.16-3.29.24-5.11.24-1.11,0-2.2-.1-3.27-.3-1.07-.2-2.04-.55-2.91-1.07-.87-.51-1.56-1.21-2.08-2.08-.52-.87-.77-1.98-.77-3.33,0-2.3.83-4,2.49-5.11Z"/>
  </g>
</svg>